<?xml version="1.0" encoding="UTF-8"?>
<svg version="1.1" viewBox="0 0 2048 2048" width="1280" height="1280" xmlns="http://www.w3.org/2000/svg">
<path transform="translate(1382,810)" d="m0 0h62l27 2 35 4 36 6 36 8 33 9 38 13 15 6h12l27-2h40l26 2 27 4 27 6 23 7 22 9 23 11 21 13 16 12 11 9 16 15 9 10 11 14 10 14 9 15 12 23 10 25 8 25 6 24 5 28 4 36 1 19v51l-2 36-4 38-7 47-8 42-12 52-10 37v3l11 7 11 9 9 10 7 11 7 17 4 15 2 10v36l-6 25-8 22-10 18-10 14-12 13-7 7-13 10-15 9-17 8-15 5-25 6-10 28-9 20-12 23-18 27-11 14-9 10-7 8-18 18-11 9-17 13-15 10-21 12-27 13-28 10-23 6-20 4-23 3-15 1-48 1h-77l-123-1-25-2-25-4-13-3-8 16-10 16-13 16-8 8-18 13-19 10-17 6-17 4-25 2h-73l-969-1-24-4-15-5-19-9-17-12-13-12-11-12-10-15-8-16-6-16-5-21v-37l6-24 8-20 8-14 8-11 9-10 12-12 14-10 16-9 15-6 20-5 27-3v-73l-22-22-12-16-10-17-8-20-4-13-4-24v-28l3-20 5-17 9-17 8-10 13-13 1-148 4-10 5-6 7-5 13-4v-58l-10-3-8-5-8-9-3-8v-29l4-36 5-26 7-27 11-31 11-25 12-22 9-15 8-12 11-15 8-10 9-11 5-6h2l2-4 20-20 8-7 12-10 16-12 21-14 17-10 23-12 29-12 27-9 29-7 31-5 26-2h343l33 3 28 5 28 7 32 11 25 11 23 12 18 11 19 13 14 11 13 11 8 7 4 4h4v-2l8-7 12-11 17-13 14-10 19-12 18-10 16-8 17-8 28-11 30-10 36-9 26-5 27-4z" fill="#010101"/>
<path transform="translate(842,2)" d="m0 0h31l22 3 25 6 25 10 19 10 16 11 14 11 13 12 9 9 9 11 10 13 14 22 5 10h2l10-18 11-16 10-13 12-14 10-10 22-18 19-12 19-10 21-8 25-6 20-3h31l24 3 24 5 27 9 22 10 14 8 18 12 13 10 14 12 18 18 9 11 12 15 10 15 10 17 7 14 1 3v13l-3 8-7 9-6 3 3 11 8 26 5 21 11 1 9 4 8 7 5 9 2 13 1 20v19l-2 27-5 29-7 26-8 24-10 23-12 25-13 23-22 33-14 19-11 14-11 13-7 8-12 14-7 7-7 8-28 28-8 7-14 13-11 9-12 11-14 11-13 11-12 9-19 14-17 13-45 30-22 14-28 17-23 13-18 10-27 14-9 2h-7l-12-5-32-17-23-13-40-24-15-10-20-13-16-11-17-12-18-13-18-14-16-13-14-11-11-10-11-9-16-15-12-11-35-35-7-8-11-12-9-11-11-13-15-20-11-15-13-20-13-22-12-22-12-27-10-28-8-30-4-23-2-16-1-32 2-30 4-28 6-27 8-26 8-21 7-16 12-22 12-19 14-19 9-10 7-8 6-7h2l1-3 8-7 10-9 16-12 17-11 22-12 25-10 20-6 19-4z" fill="#DA656D"/>
<path transform="translate(1380,871)" d="m0 0h62l36 3 36 5 25 5 30 7 29 8 24 8 32 12 4 1h11l23-3 14-1h23l31 2 26 4 25 6 21 7 21 9 20 11 17 12 15 13 11 11 9 11 10 14 9 16 8 16 8 20 8 27 6 29 4 32 1 13v73l-4 45-6 43-7 38-8 37-11 44-7 24-3 4-8 2-2-1-1-44-4-10-4-6-8-5-19-5-21-6-16-6-19-10-12-8-13-10-13-12-15-15-9-11-12-16-9-14-10-16-8-16-8-17-12-30-6-10-9-6-6-2h-13l-12 6-16 15-14 12-16 12-27 18-19 11-22 12-16 8-25 12-42 17-30 11-46 15-42 12-35 9-38 9-48 10-60 11-82 13-10 4-7 7-4 9-1 4-1 35h-1l-14-63-9-48-6-42-4-41-2-33v-34l2-32 4-31 5-25 7-27 8-24 10-23 12-22 12-18 10-13 9-10 7-8 16-16 11-9 16-12 15-10 25-14 16-8 26-11 36-12 28-7 31-6 33-4z" fill="#AD6F3E"/>
<path transform="translate(850,1249)" d="m0 0 5 5 18 27 14 19 12 15 6 8 5 5 16 17 19 19 11 9 8 7 18 13 3 7 3 17 2 6 3 18 1 1 5 25 2 6v6l-16 8-13 9-11 11-8 12-7 15-4 15-2 16v35l4 18 7 21 8 17 8 12 10 13 18 18 14 10 14 8 2 1-1 6-8 20-8 15-6 11-6 10h-2v3h-2v3h-2l-2 5-5 7-5 5-7 8-9 10-7 7-8 7-17 14-23 15-16 8-17 8-7 3-9 3-14 4-9 3-26 5-18 2-20 1h-171l-76-1-27-3-22-5-20-6-21-8-24-12-16-10-14-10-11-9-10-9-8-7-12-13-11-14v-2h-2l-8-12-8-13-10-18-8-17-8-22-6-23-5-30-1-13v-211l7-2 48-5 50-7 51-9 53-11 54-13 21-5 7-2 5-2 9-2 8-3 16-4 17-6 17-5 15-6 11-3 10-4 13-5 9-4 16-6 10-5 7-3 10-4 19-10 6-1v-2l25-13 27-16 8-5h2v-2l11-7 12-9z" fill="#FBC8BB"/>
<path transform="translate(1669,1283)" d="m0 0h2l12 23 12 21 16 24 12 16 6 7v2l3 1 6 7v2h2l7 8 10 10 8 7 15 12 17 11 19 11 15 7 16 6 11 4 5 2 1 13-1 189-2 14-6 30-6 19-5 14-7 15-8 15-12 19-10 13-11 13-12 13-8 7-10 9-18 13-18 11-17 9-14 6-22 8-11 3-32 6-24 2h-216l-30-1-25-3-22-5-20-6-15-6-25-12-16-10-14-10-11-9-12-11-14-14-7-8-14-18-11-18-12-23-8-20-7-22-5-25-3-29v-183l2-2 56-9 50-9 48-10 13-3 46-11 14-3 9-3 42-12 32-10 37-13 24-9 14-5 12-5 9-4 12-6 7-3 32-16 23-13 17-10 24-16 18-13z" fill="#FBC8BB"/>
<path transform="translate(487,887)" d="m0 0h341l24 2 23 4 24 6 29 10 24 11 17 9 18 11 15 11 14 11 12 11 7 6v5l-7 10-10 17-12 24-11 27-9 28-8 33-6 38-3 33-1 21v40l2 37 1 12-4-1-9-10-12-13-11-14-14-19-10-15-12-19-15-27-7-7-8-4-4-1h-11l-9 3-9 7-13 12-17 13-24 16-20 12-24 13-31 15-33 14-37 14-41 14-36 11-52 14-47 11-34 7-50 9-40 6-52 6-50 4-10 4-5 5-5 8-2 9-1 59-21-4-8-1-1-1-1-129-4-11-6-7-10-5-9-3v-58l6-2 10-4 6-5 6-12 1-4 1-27 4-31 6-28 9-29 10-24 8-16 10-18 8-12 10-14 11-14 14-15 17-17 22-18 19-13 15-9 23-12 21-9 30-10 26-6 27-4z" fill="#F7DB4C"/>
<path transform="translate(842,2)" d="m0 0h31l22 3 25 6 25 10 19 10 16 11 14 11 13 12 9 9 9 11 10 13 14 22 5 10h2l10-18 11-16 10-13 12-14 10-10 22-18 19-12 19-10 21-8 25-6 20-3h31l24 3 24 5 27 9 22 10 14 8 18 12 13 10 14 12 18 18 9 11 12 15 10 15 10 17 7 14 1 3v13l-3 8-7 9-12 6-5 1h-7l-11-4-8-7-10-17-11-17-8-11-9-11-11-12-7-7-11-9-12-9-18-11-16-8-22-8-16-4-24-3h-17l-18 2-17 4-16 6-19 10-11 8-11 9-3 3h-2v2l-5 5-10 11-10 14-11 19-8 17-9 27-5 24-3 26-1 16-3 10-7 9-8 5-6 2h-13l-12-6-7-8-4-12-2-30-4-25-6-22-7-19-8-16-9-16-9-12-12-14-11-11-17-13-17-10-23-9-11-3-23-3h-17l-24 3-23 6-19 8-16 8-21 14-13 11-10 9-13 14-15 20-11 18-11 21-9 23-7 22-6 27-4 31v38l3 23 5 23 8 26 10 24 10 21 11 20 11 17 10 15 12 16 13 16 8 10 10 11 7 8 12 13 24 24 8 7 7 6v2l4 2 12 11 11 9 14 12 17 13 14 11 19 14 14 10 16 11 33 22 17 10 16 10 19 11 21 12 10 6 5-1 27-15 26-15 28-17 42-28 17-12 11-8 16-12 13-10 16-13 11-9 13-11 15-14 8-7 10-9 30-30 9-11 7-7 1-2h2l2-4 9-10 6-8 14-18 20-30 10-17 12-22 9-20 9-24 7-25 4-21 2-21v-27l-1-12v-11l3-9 4-6 8-7 9-4 13 1 9 4 8 7 5 9 2 13 1 20v19l-2 27-5 29-7 26-8 24-10 23-12 25-13 23-22 33-14 19-11 14-11 13-7 8-12 14-7 7-7 8-28 28-8 7-14 13-11 9-12 11-14 11-13 11-12 9-19 14-17 13-45 30-22 14-28 17-23 13-18 10-27 14-9 2h-7l-12-5-32-17-23-13-40-24-15-10-20-13-16-11-17-12-18-13-18-14-16-13-14-11-11-10-11-9-16-15-12-11-35-35-7-8-11-12-9-11-11-13-15-20-11-15-13-20-13-22-12-22-12-27-10-28-8-30-4-23-2-16-1-32 2-30 4-28 6-27 8-26 8-21 7-16 12-22 12-19 14-19 9-10 7-8 6-7h2l1-3 8-7 10-9 16-12 17-11 22-12 25-10 20-6 19-4z" fill="#010101"/>
<path transform="translate(1380,871)" d="m0 0h62l36 3 36 5 21 4-2 1v2l3 1 16 5h14v3l-2 1-14 2-26 6-24 7-18 6-26 10-30 15-22 13-11 8-17 13-11 10h-2v2h-2v2h-2v2h-2v2h-2v2h-2l-2 4h-2l-2 4-13 14-7 9-11 15-5 7-6 11-6 10-7 14-7 15-9 21-4 11-2 9-3 8-3 9-5 26-4 36-1 18v38l2 31 2 12 3 21 4 22 4 16v4l-2 2v1l-65 13-59 10-57 9-10 4-7 7-4 9-1 4-1 35h-1l-14-63-9-48-6-42-4-41-2-33v-34l2-32 4-31 5-25 7-27 8-24 10-23 12-22 12-18 10-13 9-10 7-8 16-16 11-9 16-12 15-10 25-14 16-8 26-11 36-12 28-7 31-6 33-4z" fill="#966035"/>
<path transform="translate(487,887)" d="m0 0h341v1l-280 1 35 1 13 2h28l1 4-15 10-10 6-11 8-19 14-11 10-11 9-23 23-3 5-5 5-9 11-10 14-11 17-7 12-8 16-10 22-10 28-6 23-5 25-2 17-2 23-1 59-1 93 2 2-53 10-47 7-52 6-50 4-10 4-5 5-5 8-2 9-1 59-21-4-8-1-1-1-1-129-4-11-6-7-10-5-9-3v-58l6-2 10-4 6-5 6-12 1-4 1-27 4-31 6-28 9-29 10-24 8-16 10-18 8-12 10-14 11-14 14-15 17-17 22-18 19-13 15-9 23-12 21-9 30-10 26-6 27-4z" fill="#E8B052"/>
<path transform="translate(204,1718)" d="m0 0 8 1 12 2 3 3 9 26 11 25 13 24 14 21 10 13 9 11 9 10 7 8 7 7 2 1v2l4 2 11 10 17 13 18 12 24 14 26 12 25 9 21 6 25 5 25 3 15 1 65 1h157l38-1 29-3 31-6 24-7 22-8 24-11 19-10 17-11 19-14 11-9 15-14 15-15 9-11 12-15 14-21 9-16 12-23 7-17h4l4 12 9 20 13 25 14 22 13 17 12 14 12 13 14 13 11 9 20 15 13 8 19 11 12 6-2 5-5 10-8 10-10 10-11 7-10 5-13 4-13 2h-1039l-15-2-14-5-11-6-10-8-11-11-8-14-5-12-3-16v-17l3-14 6-15 8-12 9-10 12-9 17-8 11-3 7-1 46-1 11-4 6-5 5-10 2-9z" fill="#F7DB4C"/>
<path transform="translate(438,1408)" d="m0 0 4 1h-3l1 12v35l8 2 12 6 7 6 8 12 6 18 3 21v13l-2 12-3 11-7 14-5 7-7 6-12 6-9 1 1 1 1 20 13 5 11 7 8 7 5 8 2 6v12l-4 8-9 10-13 8-6 3h-2l4 17 6 21 10 25 12 25 14 23 18 24 9 10 7 8 11 11 8 7 13 11 17 12 18 10 8 5v3h-75l245 2v1h-171l-76-1-27-3-22-5-20-6-21-8-24-12-16-10-14-10-11-9-10-9-8-7-12-13-11-14v-2h-2l-8-12-8-13-10-18-8-17-8-22-6-23-5-30-1-13v-211l7-2 48-5 50-7 51-9z" fill="#E7AA9A"/>
<path transform="translate(849,62)" d="m0 0h17l23 3 17 5 7 3-4 1-2 4-15 5-11 6-10 7-11 8h-2v2l-8 7-18 18-6 8-8 11-3 6-3 4-1 4h-2l-1 4-5 10-4 10-4 9-7 22-2 10-2 7-4 26-1 8-1 15v43l2 24 3 16 1 10 8 36 4 14 10 30 13 32 7 16 16 32 11 20 13 23 9 14 12 19 10 15 7 10 9 12 8 11 11 15v2h2l9 12 14 17 7 8 12 12 2 1v2l4 2-2 5 4 2-2 1-18-11-27-18-16-11-18-13-16-12-13-10-14-11-13-11-11-9-15-13-5-4v-2l-4-2-9-9-8-7-27-27-7-8-10-11-9-11-14-17-14-19-8-12-11-17-9-16-12-23-8-19-6-16-8-28-4-21-2-17v-38l4-31 6-27 7-22 10-25 12-23 12-18 10-13 12-14 11-11 11-9 12-9 18-11 16-8 18-7 20-5z" fill="#D84F55"/>
<path transform="translate(1283,1441)" d="m0 0 3 1h-2l1 8v22l-2 6h13l6 2 1 5 8 7 7 11 4 9 3 15 1 17-2 21-5 15-6 9-7 8-9 6-6 1v2l-9-1 2 3v18l-13-2h-21l-12 2-17 5-10 5-9 7-6 8-3 8v12l7 11 8 7 14 8 12 4 9 2 10 1h17l16-3 4-1 4 15 7 24 7 18 12 25 10 17 11 16 9 12 9 10 7 8 15 15 22 18 19 12 13 7 16 5 173 1v1l-14 1h-216l-30-1-25-3-22-5-20-6-15-6-25-12-16-10-14-10-11-9-12-11-14-14-7-8-14-18-11-18-12-23-8-20-7-22-5-25-3-29v-183l2-2 56-9 50-9 48-10z" fill="#E6A99A"/>
<path transform="translate(204,1718)" d="m0 0 8 1 12 2 3 3 9 26 11 25 13 24 14 21 10 13 9 11 9 10 7 8 7 7 2 1v2l4 2 11 10 17 13 18 12 24 14 26 12 22 8v1h-6l1 7 1 20v13l753-1v1l-13 2h-1039l-15-2-14-5-11-6-10-8-11-11-8-14-5-12-3-16v-17l3-14 6-15 8-12 9-10 12-9 17-8 11-3 7-1 46-1 11-4 6-5 5-10 2-9z" fill="#E7AF52"/>
<path transform="translate(572,1658)" d="m0 0h14l9 6 6 7 8 14 11 12 14 8 15 4h15l15-4 11-6 12-11 9-14 3-6 8-7 5-3h14l9 4 5 4 5 10 1 3v8l-2 7-7 14-9 13h-2l-2 4-9 9-17 12-16 8-16 5-12 2h-24l-17-3-12-4-17-8-16-12-11-11-10-14-8-14-2-9 1-12 6-9 9-6z" fill="#010101"/>
<path transform="translate(1412,1653)" d="m0 0h11l9 4 8 8 8 14 6 7v2l4 2 9 6 9 4 8 2h17l11-3 14-7 9-8 9-14 5-8 8-7 7-2h13l9 6 6 7 3 7-1 13-8 17-6 9h-2l-2 4-9 10-13 10-16 9-11 5-21 4h-26l-24-5-16-8-11-7-13-11-9-11-9-14-6-12v-16l6-9 8-6z" fill="#010101"/>
<path transform="translate(863,1459)" d="m0 0h61l9 3 6 5 5 8v13l-5 9-7 6-6 2h-18v36l-6 20-8 14-5 5-7 6-5 3h-15l-12-7-8-10-6-10-6-22v-28l2-14 6-16 2-4h2l2-5 10-10 5-3z" fill="#010101"/>
<path transform="translate(1776,553)" d="m0 0h10l11 4 7 6 5 8 2 7v10l-4 10-7 9-82 82-9 6-12 3-12-2-9-6-5-6-4-8-1-5v-7l4-11 6-8 86-86 10-5z" fill="#010101"/>
<path transform="translate(324,553)" d="m0 0h10l9 3 8 6 87 87 5 10 1 3v11l-4 10-8 9-8 4-11 2-10-2-9-6-12-11-37-37-5-6-6-5-6-7-6-5v-2l-4-2-8-8-6-8-4-8-1-10 2-9 5-8 9-8z" fill="#020201"/>
<path transform="translate(390,1459)" d="m0 0h60l10 5 7 6 8 12 6 18 3 21v13l-2 12-3 11-7 14-5 7-7 6-8 4-3 1h-10l-10-4-8-7-7-11-5-12-4-17-1-10v-10l1-12-16-1-8-4-7-8-2-6v-10l4-8 4-5z" fill="#010101"/>
<path transform="translate(410,1607)" d="m0 0h9l19 2 3 3 13 5 11 7 8 7 5 8 2 6v12l-4 8-9 10-13 8-9 5-6 2-15 3h-12l-18-2-12-3-17-8-4-2v-2l-4-2-8-8-4-7-1-4v-9l4-11 9-10 11-7 15-6 16-4z" fill="#DF94AE"/>
<path transform="translate(1250,1623)" d="m0 0h21l12 2 16 8 11 7 7 7 5 8 1 4v11l-4 8-9 10-11 7-14 7-15 3h-17l-14-2-14-4-14-7-9-7-6-7-4-7v-12l4-10 9-10 9-6 13-5 15-4z" fill="#DF94AE"/>
<path transform="translate(889,1609)" d="m0 0h24l14 3 11 3 3 1 2-3 4 15 8 20 6 11 4 6-1 2-2-1-1 4-10 8-16 8-18 5-6 1h-16l-17-3-18-6-13-8-5-5-6-7-3-8v-10l4-10 9-10 14-8 11-4 11-3z" fill="#DE93AD"/>
<path transform="translate(267,691)" d="m0 0h8l17 5 72 28 10 5 7 7 4 8 1 3v13l-3 8-7 9-12 6h-15l-17-6-49-19-25-10-8-6-4-5-4-9-1-8 3-12 6-8 6-5z" fill="#020101"/>
<path transform="translate(1835,691)" d="m0 0h7l10 3 8 6 6 8 2 5 1 10-2 9-5 8-8 7-11 5-26 10-50 19-6 2h-15l-10-5-7-7-5-12v-10l3-9 4-6 8-7 25-10 52-20 14-5z" fill="#020101"/>
<path transform="translate(460,496)" d="m0 0h15l9 4 6 5 7 12 22 58 9 23 2 7v10l-4 10-5 7-10 6-12 2-11-2-9-6-4-5-5-10-30-78-3-11v-7l4-10 4-6 7-6z" fill="#020101"/>
<path transform="translate(1635,496)" d="m0 0h15l8 3 9 8 5 10 1 11-4 15-14 36-16 41-6 10-7 6-7 3-12 1-10-3-6-4-7-8-3-7-1-9 3-13 17-44 11-29 6-13 5-7 7-5z" fill="#020101"/>
<path transform="translate(1721,1624)" d="m0 0h15l15 2 15 5 14 8 8 8 6 12v10l-6 12-7 7-9 6-17 7-14 3h-22l-21-5-14-6-11-8-7-10-2-5v-12l6-12 7-7 14-8 16-5z" fill="#DF94AE"/>
<path transform="translate(174,1514)" d="m0 0h7l11 3 8 4 8 9 4 10 1 19v44l1 55-6-1-12-5-11-7-10-8-8-8-10-14-8-16-5-17-2-15 1-17 2-10 5-12 5-6 10-6z" fill="#E5A898"/>
<path transform="translate(610,1552)" d="m0 0h95l11 6 7 8 3 7 1 5v10l-3 7-7 9-8 5-6 2h-93l-10-4-9-9-4-8v-16l3-8 7-8 9-5z" fill="#010101"/>
<path transform="translate(1446,1568)" d="m0 0h91l11 4 9 8 5 11v13l-6 12-5 5-6 4-9 3h-89l-10-6-5-4-6-10-2-6v-9l5-13 9-8z" fill="#030201"/>
<path transform="translate(1693,1480)" d="m0 0h11l10 5 6 5 8 12 4 9 3 16 1 2v22l-4 22-9 17-5 6-5 4h-2v2l-7 3h-8l-8-2-8-6-5-5-9-15-5-19v-32l6-20 8-14 9-8z" fill="#020101"/>
<path transform="translate(1282,1480)" d="m0 0h12l8 4 10 9 7 12 3 7 3 15 1 17-2 21-5 15-6 9-7 8-9 6-6 2-9-1-10-5-8-8-6-11-4-10-3-13v-29l4-17 3-8 7-11 9-8z" fill="#010101"/>
<path transform="translate(1024,1534)" d="m0 0h13l11 4 8 6 5 7 2 6 1 8 1 104-4 1-16-8-10-7-10-9-8-9-7-11-5-10-5-16-2-10v-19l4-18 6-10 8-6z" fill="#E5A898"/>
<path transform="translate(1948,1534)" d="m0 0h13l9 3 9 7 5 9 3 10 1 7v21l-3 14-6 16-8 13-7 9-8 8-12 9-10 6-10 4-3-1 1-25 1-85 4-11 6-7 9-5z" fill="#E5A898"/>
<path transform="translate(518,1972)" d="m0 0 18 1 10 2 5-1 3 1 26 1h48l164-1 38 1h78l45 1 18 2 1 2h-14v2l-4 1h-481l-8-1-4-4 2-2 28-3 27-1z" fill="#FCE946"/>
<path transform="translate(939,1913)" d="m0 0h3l1 6-2 3-5 2-2 3-8 2v2l-6 2-3 3-7 3-3 2-9 3-5 3-11 3-14 4-9 1-8 3-11 1-6 2-14 3-11 2-19 1h-13l-12 1h-213l-4 1v-2l-11 1-9 1h-11l-25-3-14-3-11-2-5-2-8-2-9-3-6-3v-2l-3-1-2-4h9l21 6 25 5 25 3 15 1 65 1h157l38-1 29-3 31-6 24-7 22-8 24-11 19-10z" fill="#F5DD46"/>
<path transform="translate(846,1171)" d="m0 0 1 2 6-1 1 2-9 3-9 7-13 12-17 13-24 16-20 12-24 13-31 15-33 14-37 14-41 14-36 11-52 14-47 11h-9l4-2 4-3h4v-2l18-6 19-5 16-5 24-6 6-2 8-2 24-7 16-5 24-8 29-10 10-4 16-6 10-4 15-7 12-5 34-17 5-3h3l1-2 16-9 21-14 12-9 11-8h2v-2l14-10 5-3h2v-2z" fill="#F7E045"/>
<path transform="translate(796,1285)" d="m0 0 2 1-4 6h-2v2h-2l-1 2v-2l-5 4-3 3-10 5-4 1v2l-16 8-15 8-19 9-23 10-14 5-12 5-20 7-24 8-13 4-9 3-15 4-16 4-3 1-9 2-4 2h-10v2l-8 2-6 1-2-1v2l-12 3-5 1-13 3-11 3-7 1-7 2-16 3h-7l-1 2-7-1-2-3 2-2 51-11 52-13 10-2 7-2 5-2 9-2 8-3 16-4 17-6 17-5 15-6 11-3 10-4 13-5 9-4 16-6 10-5 7-3 10-4 19-10 6-1v-2l25-13z" fill="#F9CAB7"/>
<path transform="translate(1862,1464)" d="m0 0h1l1 13-1 189-2 14-6 30-6 19-5 14-7 15-8 15-12 19-10 13-11 13-12 13-8 7-10 9-18 13-18 11-17 9-14 6-22 8-11 3-10 1v-4l5-3 18-4 9-3 13-5 26-13 15-10 10-7 11-9 18-18 7-6 5-5 4-6 4-4h2l2-4 4-7h2l2-5 6-9 7-11 8-16 5-12 3-7 4-14 3-20 2-5 1-21 2-17 3-1 2 10v4l2-7v-168z" fill="#F9CAB7"/>
<path transform="translate(1591,1663)" d="m0 0 5 5 4 1 1 3h2l1 2v16l-4 9-10 14-6 8-8 7-5 4h-2v2l-5 2v2l-10 8-7 5-20 8-24 3-11 1-19-2-8-3-11-3-19-10-6-3v-2l-5-1-8-7-2-1v-2h-2l-9-12-3-5-3-4 1-4h-2l-2-9h-2l-2-7-3-1-1-3v-10l2-5 6-4-1 5v16l10 19 9 12 8 9 16 12 16 8 7 3 21 4h26l21-4 15-7 15-9 13-11 8-10h2l2-5 6-10 5-11 1-13-3-7z" fill="#F8CAB7"/>
<path transform="translate(1124,1836)" d="m0 0h5l7 9 11 13 12 13 14 13 11 9 20 15 13 8 19 11 12 6-2 5-5 10-8 10-10 10-11 7-10 5-9 3h-13l-3-2v-2l5-2 9-3 10-5 11-8 13-13 3-4 1-5-1-5-5-2-6-3-17-11-9-7-13-10v-2l-4-2v-2l-4-1-5-6-8-7-8-8-7-8-5-8-1-3-4-2-3-4v-3h-2z" fill="#F5DE45"/>
<path transform="translate(556,1666)" d="m0 0 1 3-3 5-1 12 2 9 11 19 11 13 8 8 10 7 10 6 13 6 19 5 8 1h24l16-3 17-6 16-9 14-11 8-8 1-2h2l2-5 7-10 7-13 2-14 4-3 4 4v10l-2 8-4 10-5 6h-2v2h-2l-2 4-7 8-8 8-4 1-2 4-13 12-15 8-17 5-17 2h-27l-25-7-16-8-6-4-5-3-6-3-11-9-6-8 1-2-1-3-2-5-5-1-1-6-8-15-1-5-4-2 1-7 3-7z" fill="#F7C8B5"/>
<path transform="translate(728,888)" d="m0 0h115l27 4 25 6 33 11 24 11 17 9 18 11 15 11 14 11 12 11 7 6v5l-5 5-5 1-3-8-4-7-4-3v-2l-4-2-13-10-7-4-4-3-4-1v-2l-5-2-4-4h-3v-2l-5-2-9-5-15-8-12-6-15-6-1-3-8-1-1-3-10-1-9-4-10-2-7-2-19-2-6-1v-2l-17-2-98-1z" fill="#F3DA46"/>
<path transform="translate(1600,1329)" d="m0 0 2 1-5 7-7 2-4 4-3-2-3 5-4 3h-2l-3 3-32 16-18 8-18 7-10 5-7 2-10 4-27 9-5 2-9 2-3 2-8 1-7 3h-8v2l-2 1h-11l-2 4h-6v-2l-9 6-8-1-4 1-1 3h-9l-6 1-1 3-5 1-4-1-4 3-9 2-7 2h-11l-1-3 29-7 14-3 9-3 42-12 32-10 37-13 24-9 14-5 12-5 9-4 12-6 7-3 32-16z" fill="#F7C8B4"/>
<path transform="translate(849,1884)" d="m0 0 2 2-2 3-9 2-5 2-26 5-18 2h-168l-11-1-3-2 1-4 65-1h67l46 2v2l7-1 1-1h6l1-2 5-1h16l7-4 9 1 1-2 7-1z" fill="#FCCDBB"/>
<path transform="translate(842,1473)" d="m0 0 1 3-1 2h-2l-8 24-1 10v28l6 22 9 14 4 4v2l5 2 7 4h15l10-7 4-2 2-4 8-14 6-20 1-30h1l1 18 3 1 2 8h-2l-2 16-1 3-2 8-4 8-3 5-1 2h-2v2l-5 2v2h-5l-3 3h-2l-1 4h-9l-2 2h-10l-6-4-12-4-6-7-6-10-4-16-2-9-3-13-1-11 2-9h2l1-13 5-12 6-12z" fill="#F6C7B3"/>
<path transform="translate(646,888)" d="m0 0h82l98 1 12 1v2h-7l-4 1-23 1h-22l-28 2-19 1h-44l-23-1-10-1-3-2-13-2-1-2z" fill="#FDEA46"/>
<path transform="translate(1696,1476)" d="m0 0h7l13 5 7 9 5 9 3 5 6 12 5 15 1 5v21l-1 7-3 14-3 9-9 12-13 7-4 3-9 1-2 1h-6l-5-4-6-2-5-5h3l1-3 9 6 6 1h8l7-2v-2l8-6 7-11 5-10 4-22v-22l-3-12-2-7-3-8-9-13-11-7-3-1-11-1 1-3z" fill="#F8CAB6"/>
<path transform="translate(885,1184)" d="m0 0 2 1v2h3l3 3v2h-2l6 6 4 8 4 6v2h2l4 6v2l2 1 5 7 4 6 4 4 3 7 5 4 5 7v4h2v2l3 1 7 8 5 1 5-2h6v-17h1l2 37 1 12-4-1-9-10-12-13-11-14-14-19-10-15-12-19-14-25z" fill="#F5DD45"/>
<path transform="translate(1734,1381)" d="m0 0 4 3v2h2l7 8 10 10 8 7 15 12 17 11 19 11 7 3v1l-8 2-7-2-4-2-2-4-5-3v-2l-4 1-10-6-6-3v-2l-8-4-14-12-7-14-4-2v-2h-2l-4-5v-2l-4-2z" fill="#F7C7B4"/>
<path transform="translate(962,1666)" d="m0 0 5 2 10 13 18 18 14 10 14 8 2 1-1 6-8-1-7-7-11-6-1-3h-2l-7-8-10-10v-2h-2v-3l-3 1-4-2-5-2-10-2v-4l7-6z" fill="#F6C6B3"/>
<path transform="translate(487,1520)" d="m0 0 2 1 1 13-3 13-4 21-8 10v2l-8 5h-2v2h-2v2l-5 1v2l-7 1-6-1 4-4 9-4 5-2 2-4h2l2-5 5-8 4-8 3-11 2-12 1-13h1v5h2z" fill="#F8CAB6"/>
<path transform="translate(998,1467)" d="m0 0 2 2 1 10-16 8-13 9-11 11-8 12-7 15-3 13-3-3-1-6 4-11 4-10 5-9 16-16 5-1 5-5 8-7 9-6h2l-1-3z" fill="#F6C6B2"/>
<path transform="translate(602,1671)" d="m0 0 4 1 5 5 12 5 5 4 3 8 10 8 4 4v2h24v1l-5 1h-15l-15-4-11-6-10-9-8-11-3-6z" fill="#F5C6B1"/>
<path transform="translate(325,1881)" d="m0 0h5l13 11 20 14 22 13 17 9 26 11 12 4v1l-7 1v-2l-4 1-13-5-9-4-8-4-5-2-8-4-10-6-4-1v-2l-4-1-5-4-8-5-11-8-3-2v-2l-3-1v-2l-6-2-5-5z" fill="#E5BE4A"/>
<path transform="translate(1442,1667)" d="m0 0 7 1v2h6l7 6v2l5 2 3 5 2 7h3v2l5 2 1 3-8 1-13-7-6-5-9-12-3-5z" fill="#FACCB9"/>
<path transform="translate(1079,1747)" d="m0 0 3 1 7 21-2 4-7-2-3-1-4 5-2 4h-3v6l-3 3-2 4-4 7h-2v2h-2l-1 3-4 2 2-5 11-20 11-23 4-10z" fill="#F1D745"/>
<path transform="translate(1660,1523)" d="m0 0h1l1 35 5 19 7 12 3 4v2l3 1-4 1-1 2-5-2-3-3v-2h-2l-2-5-1-13-3-1v-14l-4-5-2-8v-10l4-9z" fill="#F6C7B3"/>
<path transform="translate(936,1356)" d="m0 0 7 6 10 9 14 11 16 12 2 6v5h-3l-1-2-4-4-1-3-4-2v-2l-8-1-11-10-7-5-3-4v-5l-1-3h-2l-4-5z" fill="#F9CAB6"/>
<path transform="translate(1447,1628)" d="m0 0h90l-4 2-7 2-68 1-6-1v-2l-5-1z" fill="#FECFBF"/>
<path transform="translate(1383,1416)" d="m0 0 4 1-5 5-3 2-8-1-4 1-1 3h-9l-6 1-1 3-5 1-4-1-4 3-9 2-7 2h-11l-1-3 29-7 14-3 9-3 7-2z" fill="#F2C1AD"/>
<path transform="translate(1324,1557)" d="m0 0 5 4v10l-3 11-6 10-9 6-3 3-6 1-1 2-2-1v-2l8-6 6-7 6-10 4-13z" fill="#F8C9B6"/>
<path transform="translate(984,1409)" d="m0 0h3l1 8 2 6 3 18 1 1 1 16h-4l-2-5 1-7-4-2h-1l-1-12-1-2-1-15z" fill="#F7C7B4"/>
<path transform="translate(943,1473)" d="m0 0h2l2 3 4 2 1 8-2 8-3 6-8 5h-2v2l-5 2-6-1v-4l8-3 6-7 3-6z" fill="#F6C7B3"/>
<path transform="translate(726,1570)" d="m0 0 1 2 4 1 2 5 1 15-3 6h-2v3h-2v2l-13 6-2-1 9-11 4-7 1-3z" fill="#FBCDBB"/>
<path transform="translate(1862,1464)" d="m0 0h1l1 13-1 189-2 14h-1v-15l1-6v-168z" fill="#E1A593"/>
<path transform="translate(1854,1492)" d="m0 0h3l1 2v59l-1 2h-2l-2-30v-11l-1-11 1-10z" fill="#FFD2C0"/>
<path transform="translate(1561,1588)" d="m0 0 6 3 3 7-1 9-3 9-4 3-7 1 2-7 4-9z" fill="#FBCCBA"/>
<path transform="translate(615,1613)" d="m0 0h76l-4 1-1 2h-15l-40 1h-12l-3-2z" fill="#FFD2C0"/>
<path transform="translate(1660,1523)" d="m0 0h1l1 37-3-1-4-5-2-8v-10l4-9z" fill="#F7C8B4"/>
<path transform="translate(1437,1568)" d="m0 0h6l2 2-8 4-7 6-5 13v9l1 2v7h-2l-2-7-3-1v-9l4-8 5-9 5-6z" fill="#FACBB6"/>
<path transform="translate(556,1666)" d="m0 0 1 3-3 5-1 12 2 9 11 19 1 2-7-1-1-6-8-15-1-5-4-2 1-7 3-7z" fill="#F6C7B3"/>
<path transform="translate(450,1457)" d="m0 0 11 1 5 5 4 6 3 7 4 4 2 8 3 1v16h-1l-4-15-4-9-7-11-9-7-7-3z" fill="#F5C4B0"/>
<path transform="translate(1818,1449)" d="m0 0h7l10 5 9 3v5h-8l-10-3-7-5v-2h-2z" fill="#FBCCB9"/>
<path transform="translate(1964,1639)" d="m0 0 1 3-9 9-12 9-10 6-5 2h-4v-2l10-6 4-1v-2l5-2 2 1 2-5h2v-2h2v-2l4-4 6-1v-2z" fill="#F1C1AB"/>
<path transform="translate(406,1861)" d="m0 0 7 2 16 8 16 7 5 2 7 3-1 2-7-1-21-9-21-11z" fill="#EDBAA4"/>
<path transform="translate(602,1552)" d="m0 0h3v2l-10 7-4 5-3 8v16l3 6v2l-5-2-2-3v-9h2v-4h-2l-1-8 5-9 7-7z" fill="#F5C5B1"/>
<path transform="translate(1543,1668)" d="m0 0 1 4-9 13-9 8-7 4h-2l1-4 8-7 5-5 8-7z" fill="#F3C3AD"/>
<path transform="translate(939,1546)" d="m0 0h1l1 11-1 8-1 25h-1l-1-24-3-1-1-2v-10l4-6z" fill="#ECBBA4"/>
<path transform="translate(885,1184)" d="m0 0 2 1v2h3l3 3v2h-2l6 6 4 8 4 6-3 6-13-23-4-7z" fill="#F1D745"/>
<path transform="translate(1338,1428)" d="m0 0h5l-5 5-7 3-7 1-9 1h-5l-1-3z" fill="#F0C0AA"/>
<path transform="translate(1696,1476)" d="m0 0h7l13 5 7 9 4 7-1 4-7-11-10-7-5-2-11-1 1-3z" fill="#F1C0AA"/>
<path transform="translate(1533,884)" d="m0 0 11 1 22 5v2l-14 1-17-5z" fill="#AA6D3D"/>
<path transform="translate(964,1168)" d="m0 0 3 3v26l-2 1v-2h-2l-1-4v-14l1-9z" fill="#FDEA46"/>
<path transform="translate(709,1674)" d="m0 0h2l-2 5-7 10-8 8-6 4-1-3 10-11 6-5z" fill="#F2C0AC"/>
<path transform="translate(1020,994)" d="m0 0h2l1 2v6l-7 13-1-4-3-1 2-6z" fill="#F0D546"/>
<path transform="translate(850,1249)" d="m0 0 5 5 14 21-3 1-7-9 1-3-4-2-2-5-9-3z" fill="#E7B59C"/>
<path transform="translate(1092,1783)" d="m0 0 5 1 5 10v2l-7 1-3-7-1-6z" fill="#F1D845"/>
<path transform="translate(488,1892)" d="m0 0 7 1 21 2 7 2v1h-20l-7-2-8-2z" fill="#F4C3B0"/>
<path transform="translate(1851,1461)" d="m0 0 11 2v5l-4 1-1 2-8-4v-3l-2-1z" fill="#FCCEBC"/>
<path transform="translate(1437,1568)" d="m0 0h6l2 2-8 4-7 6-3 8-2-3 4-10z" fill="#F3C2AD"/>
<path transform="translate(1669,1283)" d="m0 0h2l11 21v2l-3-1-8-15-8-1 5-5z" fill="#E9B8A2"/>
<path transform="translate(831,888)" d="m0 0h12l27 4 5 1v1h-11l-8-1v-2h-18v-2h-7z" fill="#C49243"/>
<path transform="translate(1600,1329)" d="m0 0 2 1-5 7-7 2-4 4-4-4z" fill="#EAB9A2"/>
<path transform="translate(1641,1895)" d="m0 0h7l8 3v1l-15 3h-5l1-4h2v-2z" fill="#EDBBA5"/>
<path transform="translate(1046,1810)" d="m0 0 2 4-3 5v3l-6 3-5 6-2-1 11-15z" fill="#E7C745"/>
<path transform="translate(969,1172)" d="m0 0h1l-1 22-1 21h-1v-38h2z" fill="#C18F42"/>
<path transform="translate(458,1883)" d="m0 0 10 3 11 4v2l-8-1-13-4z" fill="#EBB7A2"/>
<path transform="translate(937,1589)" d="m0 0 2 1 1 18-5-3-1-3z" fill="#FBCCBA"/>
<path transform="translate(1060,1446)" d="m0 0h1l1 5 1 24h-1l-3-14v-14z" fill="#A86C3C"/>
<path transform="translate(968,1276)" d="m0 0h1l2 28-4-1-1-5z" fill="#CD9E45"/>
<path transform="translate(1353,1424)" d="m0 0h5l-1 3-6 1-1 3-5 1-3-3 4-3z" fill="#F6C6B3"/>
<path transform="translate(1368,1420)" d="m0 0h5l-3 4h-3l-1 3-9-1v-3l10-2z" fill="#F3C3AE"/>
<path transform="translate(403,1509)" d="m0 0h1l-1 24h-1l-2-8v-11z" fill="#FED1BF"/>
<path transform="translate(557,1700)" d="m0 0 3 4 7 12-7-1-1-6-3-5z" fill="#EBB9A3"/>
<path transform="translate(586,1576)" d="m0 0h1l1 14 3 6v2l-5-2-2-3v-9h2z" fill="#E6B49B"/>
<path transform="translate(1862,1646)" d="m0 0h1v20l-2 14h-1v-15z" fill="#BE8260"/>
<path transform="translate(476,1484)" d="m0 0 3 2v2l3 1v16h-1l-4-15z" fill="#E2AF96"/>
<path transform="translate(325,1881)" d="m0 0h5l8 7v3l-6-2-5-5z" fill="#E6C04A"/>
<path transform="translate(796,1285)" d="m0 0 2 1-4 6h-2v2h-2l-1 2v-2l-3-1 1-3z" fill="#EFBDA9"/>
<path transform="translate(811,1276)" d="m0 0 2 1-5 5-6 4-1 3-3-3v-2z" fill="#EAB8A1"/>
<path transform="translate(968,1141)" d="m0 0 3 2v12l-2 1-2-5v-8z" fill="#FDEA46"/>
<path transform="translate(1155,98)" d="m0 0 2 1-21 21v-3l7-7 2-3h2v-2z" fill="#CE5C5B"/>
<path transform="translate(989,1876)" d="m0 0 4 1-7 7-5 4-2-1 1-3 8-7z" fill="#EBCB47"/>
<path transform="translate(1321,1509)" d="m0 0 5 4v9l-1 5h-1l-3-15z" fill="#EAB8A0"/>
<path transform="translate(856,1172)" d="m0 0h15l8 4-1 3-9-4-13-2z" fill="#DFBA45"/>
<path transform="translate(1665,1507)" d="m0 0h2l-4 17h-1l-1-10 3-6z" fill="#E5B194"/>
<path transform="translate(310,1762)" d="m0 0h2l3 9 3 1v4l-4-2-4-7z" fill="#F3C1AC"/>
<path transform="translate(902,1322)" d="m0 0 5 2 8 9-4 1-5-5v-2h-2z" fill="#EAB8A1"/>
<path transform="translate(1724,1369)" d="m0 0 5 5v2l3 1 2 4-2 1-2-1v-2h-2l-5-7z" fill="#EDBBA6"/>
<path transform="translate(885,1184)" d="m0 0 2 1v2h3l3 3v2h-2l1 3-2 2-5-9z" fill="#EFD445"/>
<path transform="translate(479,1890)" d="m0 0 7 1 2 1v2h6l2 2-9-1-8-2z" fill="#DFA78D"/>
<path transform="translate(1029,1834)" d="m0 0h3l-2 4-3 2-3 5-5 2 6-8z" fill="#E0BB45"/>
<path transform="translate(1968,1538)" d="m0 0 5 1 6 5 3 5-1 4-5-8-4-4-4-2z" fill="#EBB8A2"/>
<path transform="translate(859,1458)" d="m0 0 4 1-4 2-8 6-2 1 1-4 4-4z" fill="#ECB9A3"/>
<path transform="translate(371,1478)" d="m0 0h1l3 18-3-1-2-4z" fill="#DDA88A"/>
<path transform="translate(1600,1329)" d="m0 0 2 1-5 7-4 1 1-6z" fill="#F1C0AB"/>
<path transform="translate(1028,974)" d="m0 0h2l5 5v5l-4 4v-6l1-4h-3z" fill="#D1A446"/>
<path transform="translate(856,891)" d="m0 0h9l10 2v1h-11l-8-1z" fill="#CC9D44"/>
<path transform="translate(1297,1602)" d="m0 0 2 1-1 5h-8l1-4z" fill="#F0BFAB"/>
<path transform="translate(483,1504)" d="m0 0h3v5l-1 1-1 11h-1l-1-15z" fill="#DBA68A"/>
<path transform="translate(1647,1299)" d="m0 0 2 1-5 5-5 4-3-1 4-4z" fill="#E1AD95"/>
<path transform="translate(1107,1811)" d="m0 0 5 2-1 4 2 1h-3l-4-2z" fill="#FCE946"/>
<path transform="translate(319,1777)" d="m0 0 7 7v5h-2l-5-8z" fill="#F0BEAA"/>
<path transform="translate(601,1895)" d="m0 0 3 1v3h-20v-1l15-1z" fill="#FDCCBD"/>
<path transform="translate(1674,1293)" d="m0 0 3 1 5 10v2l-3-1-5-10z" fill="#E8B59E"/>
<path transform="translate(892,1868)" d="m0 0m-2 1 3 1-4 3-9 4 2-4z" fill="#F3C2AB"/>
<path transform="translate(1610,1323)" d="m0 0 2 1-5 5-2 3-3-2 1-3z" fill="#E9B7A0"/>
<path transform="translate(888,897)" d="m0 0 7 1 10 3v1h-7l-6-2-4-1z" fill="#C39242"/>
<path transform="translate(860,1882)" d="m0 0m-4 1 5 1-3 2-8 2 2-4z" fill="#ECBAA4"/>
<path transform="translate(1018,1635)" d="m0 0 4 1v4l4-1v2h-2l-1 3-5-6z" fill="#ECBB9F"/>
<path transform="translate(1259,1498)" d="m0 0 1 3-2 3-2 7h-2l-1 3 1-7z" fill="#EFBEA1"/>
<path transform="translate(303,1749)" d="m0 0 3 3 3 6-1 2-4-4-2-3z" fill="#F7C5B4"/>
<path transform="translate(600,1889)" d="m0 0 4 1 1 4-5 1-2-2v-2h2z" fill="#FED1BF"/>
<path transform="translate(960,1818)" d="m0 0h3l-2 4-5 4-1-2 2-3z" fill="#E9B79D"/>
<path transform="translate(374,1493)" d="m0 0 5 5 2 5-4-2-3-3z" fill="#E1AD94"/>
<path transform="translate(1294,1478)" d="m0 0 8 2v4l-6-2-4-3z" fill="#EDBBA5"/>
<path transform="translate(371,1473)" d="m0 0h1l-1 13h-2v-9z" fill="#FDCFBE"/>
<path transform="translate(1629,1311)" d="m0 0 2 1-6 7-3-1 1-3z" fill="#E4B299"/>
<path transform="translate(972,1122)" d="m0 0h3v9l-1-2h-2l-1-6z" fill="#FDEA46"/>
</svg>
